<svg width="1386" height="1603" xmlns="http://www.w3.org/2000/svg" xmlns:xlink="http://www.w3.org/1999/xlink" overflow="hidden"><defs><clipPath id="clip0"><rect x="1506" y="438" width="1386" height="1603"/></clipPath></defs><g clip-path="url(#clip0)" transform="translate(-1506 -438)"><path d="M2197.85 461.5 2871.5 851.073C2870.74 1109.26 2869.97 1367.45 2869.21 1625.64L2200.15 2017.5 1526.5 1625.64C1527.26 1366.68 1528.03 1107.73 1528.79 848.781L2197.85 461.5Z" stroke="#183F6D" stroke-width="38.9583" stroke-miterlimit="8" fill="#144F85" fill-rule="evenodd"/><path d="M2199.71 477C2200.47 984 2201.24 1491 2202 1998L1542 1620.04C1542.76 1365.01 1543.53 1109.99 1544.29 854.959L2199.71 477Z" fill="#3C6EB4" fill-rule="evenodd"/><path d="M2576.25 1249.04C2569.94 1255.49 2561.04 1264.49 2547.72 1274.08 2534.25 1283.78 2526.47 1294.68 2522.2 1304.32 2515.6 1320.16 2513.03 1340.43 2513.03 1364.37 2513.03 1387.91 2515.17 1407.82 2520.37 1423.63 2525.5 1439.24 2531.47 1445.97 2539.05 1443.94 2547.52 1441.68 2555.1 1429.76 2563.24 1409.27 2569.16 1393.96 2572.5 1375.91 2574.41 1355.38 2575.73 1341.99 2576.25 1316.8 2576.25 1279.81 2576.25 1269.55 2576.25 1259.29 2576.25 1249.04ZM2737.3 1093.16C2727.05 1090.56 2718.94 1098.17 2711.95 1116.24 2704.8 1134.71 2701.99 1161.73 2702.11 1196.38 2725.47 1197.94 2748.81 1199.77 2772.17 1201.33 2771.81 1168.96 2768.64 1143.61 2761.66 1125.34 2754.54 1106.69 2746.89 1095.6 2737.3 1093.16ZM2734.47 1000.67C2760.82 1012.02 2780.67 1041.66 2796.86 1086.73 2812.25 1129.62 2819.43 1189.02 2818.71 1266.77 2779.55 1269.1 2740.43 1271.82 2701.27 1274.15 2701.64 1311.81 2704.87 1340.67 2712.62 1359.73 2720.18 1378.35 2728.83 1386.13 2739.64 1383.33 2747 1381.43 2752.88 1374.64 2758.16 1363.68 2763.36 1352.87 2766.73 1336.38 2769.5 1314.61 2785.1 1318.21 2800.57 1322.14 2816.21 1324.7 2809.71 1363.51 2800.73 1395.46 2787.76 1420.36 2774.36 1446.12 2758.6 1463.94 2739.14 1472.32 2708.33 1485.58 2685.84 1467.27 2670.75 1415.58 2658.31 1372.28 2653.23 1313.57 2653.23 1241.42 2653.23 1155.23 2659.94 1089.18 2676.25 1046.16 2691.78 1005.21 2711 990.572 2734.47 1000.67ZM2547.72 920.291C2568.63 929.29 2584 944.153 2594.43 964.217 2604.67 983.911 2611.67 1006.29 2616.03 1031.37 2620.35 1056.16 2622.29 1099.82 2622.29 1162.5 2622.11 1218.66 2621.97 1274.85 2621.79 1331.07 2621.79 1379.05 2622.47 1414.24 2624.04 1436.55 2625.6 1458.76 2628.29 1482.01 2632.46 1506.09 2616.99 1512.43 2601.56 1518.85 2586.09 1525.19 2584.86 1515.57 2583.42 1501.11 2581.59 1481.79 2580.78 1472.96 2580.26 1467.14 2579.92 1464.33 2571.56 1492.6 2563.35 1515.35 2554.23 1532.08 2544.97 1549.07 2535.38 1560.02 2525.04 1564.47 2506.8 1572.32 2492.54 1560.25 2481.92 1527.62 2471.01 1494.13 2466.15 1448.05 2466.15 1390.49 2466.15 1352.4 2468.11 1318.13 2473.33 1288.15 2478.48 1258.52 2484.18 1235.56 2493.43 1220.62 2502.52 1205.93 2514.03 1192.3 2530.71 1183.12 2552.88 1171.19 2567.32 1158.88 2576.25 1148.49 2576.25 1143.37 2576.25 1138.24 2576.25 1133.11 2576.25 1103.44 2574.24 1081.73 2569.58 1068.07 2564.86 1054.27 2556.76 1045.44 2544.39 1042.29 2536.03 1040.17 2529.75 1044.24 2524.87 1054.53 2519.93 1064.94 2516.63 1084.79 2513.53 1113.7 2498.9 1102.68 2485.46 1089.78 2470.99 1077.84 2476.08 1014.4 2483.61 969.268 2495.68 943.171 2507.41 917.81 2524.7 910.383 2547.72 920.291ZM2352.57 836.291C2376.81 846.726 2394.49 870.926 2406.62 907.904 2418.49 944.101 2426.2 993.491 2430.97 1056.09 2415.95 1063.36 2401.7 1072.56 2386.77 1080.81 2384.73 1051.65 2381.53 1028.63 2376.01 1011.99 2370.42 995.183 2363.21 985.139 2353.4 982.545 2341.03 979.273 2332.47 984.478 2326.88 998.311 2323.12 1008.28 2321.54 1022.13 2321.54 1039.55 2321.54 1054.49 2322.88 1067.54 2326.21 1078.43 2330.71 1092.86 2343.71 1115.68 2370 1141.73 2395.63 1167.13 2411.49 1197.66 2422.3 1230.81 2432.76 1263.73 2436.98 1309.6 2436.98 1368.33 2436.98 1432.32 2430.38 1489.38 2416.62 1540.45 2402.5 1592.9 2382.98 1625.62 2356.41 1637.06 2332.27 1647.44 2313.3 1633.52 2299.11 1594.46 2288.19 1564.42 2281.03 1523.36 2275.66 1471.92 2274.19 1453.56 2272.99 1435.12 2271.5 1416.66 2271.5 1416.66 2271.5 1416.66 2271.5 1416.66 2287.54 1403.22 2302.34 1388.61 2318.54 1376.12 2320.69 1416.7 2324.22 1446.98 2330.72 1466.48 2337.14 1485.74 2345.37 1493.82 2356.41 1490.91 2368.56 1487.71 2377.28 1475.62 2383.76 1455.5 2388.08 1441.58 2389.94 1423.7 2389.94 1401.96 2389.94 1387.16 2388.98 1375.03 2386.6 1365.66 2384.08 1356.73 2379.28 1348.41 2370.92 1341.67 2331.21 1311.59 2309.84 1276.09 2299.02 1245.14 2283.71 1201.26 2278.01 1138.35 2278.01 1058.71 2278.01 986.886 2283.6 928.248 2296.19 884.085 2308.47 841.012 2327.1 825.329 2352.57 836.291Z" fill="#FFFFFF" fill-rule="evenodd"/><text fill="#000000" fill-opacity="0" font-family="Arial,Arial_MSFontService,sans-serif" font-size="807.463" x="2271.5" y="1539.45">sae</text><path d="M2009.57 798.797C2056.9 775.516 2102.79 768.871 2146.37 783.573 2124.89 871.733 2105.67 957.377 2082.04 1038.57 2046.65 1019.7 2014.6 1014.24 1984.43 1021.78 1955.25 1029.08 1931.7 1045.5 1910.49 1066.27 1889.67 1086.64 1875.66 1119.89 1862.79 1162.69 1850.25 1204.41 1845.41 1289.37 1845.41 1417.62 1845.41 1495.23 1845.41 1572.84 1845.41 1650.45 1776.15 1616.37 1706.89 1582.3 1637.62 1548.23 1637.62 1363.58 1637.62 1178.94 1637.62 994.292 1702.03 964.207 1766.21 933.629 1830.62 903.544 1830.62 938.599 1830.62 973.653 1830.62 1008.71 1866.01 947.237 1893.45 898.741 1919.73 869.419 1946.55 839.497 1976.05 815.288 2009.57 798.797Z" fill="#FFFFFF" fill-rule="evenodd"/><text fill="#000000" fill-opacity="0" font-family="Arial,Arial_MSFontService,sans-serif" font-size="874.671" x="1637.62" y="1541.11">r</text></g></svg>